<svg version="1.1" id="Layer_1" xmlns="http://www.w3.org/2000/svg" xmlns:xlink="http://www.w3.org/1999/xlink" x="0px" y="0px"
	 width="100%" viewBox="0 0 690 540" enable-background="new 0 0 690 540" xml:space="preserve">
<path fill="#FEFFFF" opacity="1.000000" stroke="none" 
	d="
M691.000000,197.000000 
	C691.000000,311.999969 691.000000,426.499908 691.000000,540.999878 
	C461.000153,540.999939 231.000290,540.999939 1.000324,541.000000 
	C1.000216,361.000214 1.000216,181.000443 1.000108,1.000493 
	C230.999695,1.000328 460.999390,1.000328 690.999512,1.000164 
	C691.000000,66.166664 691.000000,131.333328 691.000000,197.000000 
M600.585632,396.500061 
	C600.585815,368.175354 600.585754,339.850677 600.586243,311.525970 
	C600.586731,288.033203 600.585876,264.540466 600.590759,241.047699 
	C600.591492,237.526245 600.513794,234.015121 603.958618,231.673309 
	C616.656250,223.041245 615.936401,210.249863 614.845581,196.847198 
	C600.415710,196.847198 586.278503,197.115128 572.158875,196.731918 
	C565.305969,196.545914 560.372375,198.240723 558.535583,205.887924 
	C543.654297,196.079758 527.520752,194.532654 510.741638,195.948212 
	C489.439728,197.745331 473.587646,207.222855 466.352264,228.055161 
	C463.757690,235.525452 461.416443,243.537201 461.299774,251.336807 
	C460.769470,286.803284 460.686279,322.288696 461.279572,357.753296 
	C461.497772,370.797028 465.598419,383.293823 472.834381,394.475525 
	C487.567322,417.242432 524.967163,426.282196 548.555542,412.743469 
	C551.667725,410.957275 554.706787,409.043610 557.950012,407.086151 
	C557.950012,429.208832 558.283630,450.847137 557.784180,472.466156 
	C557.587158,480.995514 552.825806,487.343872 544.505676,490.784393 
	C536.721069,494.003387 528.677185,494.859528 520.516907,493.789734 
	C508.750702,492.247284 502.305542,484.715424 501.778381,472.845673 
	C501.601288,468.859436 501.517242,464.848267 500.984222,460.903442 
	C500.135376,454.621460 496.613403,450.153351 490.659607,447.923859 
	C480.688782,444.190155 470.417389,446.429932 460.016388,445.837341 
	C460.016388,454.330566 459.986694,461.981934 460.022125,469.632996 
	C460.118042,490.344482 469.326080,506.027100 486.624146,517.015991 
	C504.179810,528.168518 523.562500,530.131592 543.782104,528.147461 
	C578.129883,524.776917 599.245483,502.825653 600.085327,468.460358 
	C600.663147,444.816986 600.446838,421.154175 600.585632,396.500061 
M238.142960,335.500000 
	C238.142929,304.172607 238.035965,272.844299 238.301270,241.519150 
	C238.329102,238.232895 239.579941,233.677002 241.923157,231.905060 
	C254.072571,222.717590 253.873169,210.261520 252.642960,196.847977 
	C239.275436,196.847977 226.139954,196.814804 213.004837,196.870239 
	C209.522263,196.884933 205.602219,196.232697 202.681274,197.596405 
	C199.713364,198.982086 197.731216,202.479111 195.152954,205.226730 
	C180.156006,195.317825 163.068344,194.289047 145.535385,196.324875 
	C135.506104,197.489410 126.006935,200.320694 118.103874,207.162674 
	C105.077995,218.439713 99.714081,233.698196 99.300941,249.849869 
	C98.368835,286.290741 98.521820,322.782288 99.268402,359.231995 
	C99.571548,374.032776 104.771950,387.986206 114.393906,399.730560 
	C130.035965,418.822876 165.935303,424.911957 187.188858,412.212738 
	C189.985413,410.541779 192.760162,408.834320 195.858398,406.953491 
	C195.858398,428.954346 196.209290,450.406097 195.689819,471.836700 
	C195.474838,480.706024 190.735245,487.453033 181.949554,490.943237 
	C174.132858,494.048462 166.077820,494.912964 157.928467,493.730682 
	C146.903275,492.131073 141.219116,486.074829 139.744370,474.980743 
	C139.198044,470.870850 139.367599,466.671021 139.007126,462.529968 
	C138.349762,454.977966 134.605637,448.962921 127.150452,447.652771 
	C117.660774,445.985138 107.882233,445.961212 97.889992,445.203033 
	C97.889992,454.135559 97.941414,461.620605 97.880356,469.104736 
	C97.696632,491.623871 108.261101,507.818939 127.372780,518.795532 
	C144.401932,528.576172 162.908569,529.977356 182.031479,528.118896 
	C215.767487,524.840149 237.660995,501.803955 237.942215,467.973541 
	C238.306503,424.151520 238.102448,380.324738 238.142960,335.500000 
M284.283356,375.380249 
	C283.159424,377.344910 282.520081,380.039917 280.834595,381.158203 
	C267.930817,389.719788 269.473633,402.471954 270.147949,415.261047 
	C293.915802,415.261047 317.316620,415.261047 341.016113,415.261047 
	C341.016113,411.088654 340.887268,407.262878 341.041962,403.448578 
	C341.402618,394.555695 337.798859,387.520050 330.835602,382.321625 
	C327.189209,379.599396 326.071259,376.236969 326.075409,371.981110 
	C326.115814,330.316956 326.048645,288.652496 326.233887,246.989120 
	C326.243958,244.723755 327.668060,241.828445 329.391510,240.321487 
	C335.554535,234.932648 342.985291,231.872742 351.145020,231.277145 
	C364.121521,230.329987 380.541351,235.482864 382.351471,254.884933 
	C382.691040,258.524719 382.985168,262.185669 382.989319,265.837219 
	C383.034790,306.001465 382.852020,346.167145 383.184052,386.328705 
	C383.239075,392.987885 385.033630,399.749573 386.828461,406.241516 
	C388.335022,411.690887 392.840393,414.704041 398.427399,415.049835 
	C406.227509,415.532623 414.061798,415.497070 421.882538,415.600952 
	C427.496216,415.675507 433.111664,415.615417 439.002563,415.615417 
	C439.002563,410.781433 438.913605,406.625366 439.021484,402.474457 
	C439.232361,394.359619 435.870850,387.671478 429.784210,382.852539 
	C425.680206,379.603271 424.663269,376.017365 424.676788,371.240814 
	C424.774536,336.743134 424.941742,302.242950 424.601105,267.748352 
	C424.499664,257.479797 423.650818,247.074631 421.745789,236.996429 
	C417.080505,212.315872 402.070038,198.939270 377.532654,195.792358 
	C359.422028,193.469666 342.371735,196.019943 326.196808,205.849213 
	C325.054230,197.984955 320.088135,196.251282 313.204651,196.759338 
	C307.403229,197.187500 301.545166,196.847458 295.712158,196.847458 
	C287.262146,196.847458 278.812134,196.847458 269.842010,196.847458 
	C269.842010,201.000977 270.072876,204.641037 269.798096,208.242508 
	C269.020325,218.435715 272.810059,226.226852 280.924835,232.477676 
	C283.028290,234.097977 284.563629,237.819626 284.577423,240.584930 
	C284.795837,284.414520 284.725067,328.245544 284.705994,372.076233 
	C284.705658,372.903015 284.530121,373.729767 284.283356,375.380249 
M463.584778,68.859314 
	C493.579010,75.720963 523.683655,82.146179 553.505371,89.689575 
	C563.455566,92.206474 571.055725,91.367378 578.876099,84.507965 
	C586.891052,77.477913 595.976501,71.668243 605.317749,64.791161 
	C602.214294,64.202354 600.139709,63.796307 598.060425,63.416115 
	C569.756653,58.241013 541.448853,53.087620 513.149109,47.890835 
	C493.515778,44.285492 473.887665,40.650459 454.278931,36.914886 
	C453.052979,36.681343 452.016052,35.455536 450.891205,34.691360 
	C452.193115,34.085957 453.444916,33.278114 454.812866,32.939495 
	C455.898560,32.670746 457.130249,32.932941 458.290680,33.033550 
	C481.661102,35.059750 505.032623,37.074177 528.399841,39.136948 
	C560.382935,41.960308 592.360168,44.851452 624.349854,47.596935 
	C626.346313,47.768280 628.802734,47.505596 630.414429,46.466583 
	C645.241272,36.908092 659.923279,27.125162 674.675110,17.449753 
	C675.330750,17.019760 676.252686,16.995724 677.726562,16.602016 
	C675.726685,15.526917 675.599243,15.398414 675.471863,15.398384 
	C604.144836,15.381413 532.817810,15.396883 461.490997,15.286752 
	C458.294830,15.281816 457.267670,16.945507 456.018707,19.261015 
	C450.999023,28.567383 446.026581,37.910542 440.622009,46.993370 
	C437.771667,51.783562 434.066803,56.065250 430.331818,61.141853 
	C441.497467,63.725513 452.137207,66.187477 463.584778,68.859314 
M107.500076,15.367736 
	C77.087975,15.367736 46.675865,15.367736 15.534957,15.367736 
	C16.590376,16.475878 17.043304,17.165985 17.675961,17.584217 
	C32.317520,27.263378 46.938084,36.975918 61.693012,46.479687 
	C63.332508,47.535698 65.800720,47.869122 67.812691,47.697025 
	C92.328720,45.600006 116.829185,43.321922 141.337875,41.137875 
	C171.316330,38.466396 201.296234,35.809784 231.282959,33.233658 
	C234.746750,32.936085 238.258179,33.193306 242.247772,33.193306 
	C241.620300,34.691776 241.502182,35.472900 241.242661,35.523102 
	C190.367218,45.365154 139.481766,55.155468 88.165787,65.030441 
	C88.893768,65.841881 89.324173,66.520630 89.927429,66.964462 
	C100.347130,74.630493 110.679626,82.424530 121.316277,89.778214 
	C123.435165,91.243118 126.948883,91.959496 129.458405,91.400459 
	C168.483459,82.707024 207.451477,73.757233 246.425323,64.834579 
	C251.468979,63.679886 256.471741,62.346558 260.786560,61.272022 
	C251.514893,45.959698 242.513000,31.092884 232.991653,15.368183 
	C192.458176,15.368183 150.479141,15.368183 107.500076,15.367736 
M466.739044,123.890259 
	C442.479065,114.844887 418.227081,105.777863 393.939087,96.808311 
	C392.492920,96.274231 390.415161,95.872215 389.212311,96.508003 
	C379.872559,101.444649 370.675659,106.651550 361.079865,111.971504 
	C385.086517,128.783569 409.997803,143.416473 438.776947,149.776108 
	C462.036316,154.915955 484.364502,152.590485 505.056305,138.091034 
	C492.274994,133.342606 479.877228,128.736664 466.739044,123.890259 
M235.429291,152.008286 
	C241.997406,151.152588 248.679489,150.801712 255.112915,149.349380 
	C277.061829,144.394470 296.786407,134.255737 315.681702,122.367493 
	C320.944763,119.056152 326.053864,115.500183 331.472748,111.897446 
	C322.515961,106.990738 314.158905,102.631912 306.049622,97.852745 
	C303.160095,96.149818 300.793610,95.900902 297.695740,97.061882 
	C269.956543,107.457726 242.162842,117.708099 214.394196,128.025620 
	C205.502884,131.329208 196.638580,134.705521 187.432632,138.172577 
	C201.990036,148.137665 217.481323,152.634903 235.429291,152.008286 
M537.355652,101.265991 
	C499.844604,91.543640 462.336304,81.810463 424.812225,72.138687 
	C423.318695,71.753731 421.088593,71.248474 420.195557,71.992363 
	C414.175262,77.007393 408.423584,82.344841 402.264771,87.864830 
	C441.206940,100.827843 479.674347,113.641518 518.162048,126.394058 
	C519.120300,126.711548 520.602295,126.770950 521.335144,126.245956 
	C531.021851,119.306709 540.617920,112.240921 550.836365,104.768143 
	C546.051636,103.506134 542.107422,102.465828 537.355652,101.265991 
M170.617844,126.029465 
	C172.642456,125.902588 174.808060,126.201920 176.670837,125.585785 
	C212.393082,113.770187 248.081024,101.850952 283.770416,89.936165 
	C285.813812,89.253990 287.808777,88.426743 290.048279,87.583412 
	C284.673248,82.838387 279.651245,78.723228 275.028351,74.200172 
	C272.412872,71.641182 269.900238,71.342590 266.566040,72.217255 
	C230.949173,81.560684 195.305161,90.800476 159.670868,100.077499 
	C154.029694,101.546120 148.399857,103.058281 141.743744,104.820656 
	C151.863037,112.280861 160.924255,118.961037 170.617844,126.029465 
z"/>
<path fill="#4CA37E" opacity="1.000000" stroke="none" 
	d="
M600.585510,397.000061 
	C600.446838,421.154175 600.663147,444.816986 600.085327,468.460358 
	C599.245483,502.825653 578.129883,524.776917 543.782104,528.147461 
	C523.562500,530.131592 504.179810,528.168518 486.624146,517.015991 
	C469.326080,506.027100 460.118042,490.344482 460.022125,469.632996 
	C459.986694,461.981934 460.016388,454.330566 460.016388,445.837341 
	C470.417389,446.429932 480.688782,444.190155 490.659607,447.923859 
	C496.613403,450.153351 500.135376,454.621460 500.984222,460.903442 
	C501.517242,464.848267 501.601288,468.859436 501.778381,472.845673 
	C502.305542,484.715424 508.750702,492.247284 520.516907,493.789734 
	C528.677185,494.859528 536.721069,494.003387 544.505676,490.784393 
	C552.825806,487.343872 557.587158,480.995514 557.784180,472.466156 
	C558.283630,450.847137 557.950012,429.208832 557.950012,407.086151 
	C554.706787,409.043610 551.667725,410.957275 548.555542,412.743469 
	C524.967163,426.282196 487.567322,417.242432 472.834381,394.475525 
	C465.598419,383.293823 461.497772,370.797028 461.279572,357.753296 
	C460.686279,322.288696 460.769470,286.803284 461.299774,251.336807 
	C461.416443,243.537201 463.757690,235.525452 466.352264,228.055161 
	C473.587646,207.222855 489.439728,197.745331 510.741638,195.948212 
	C527.520752,194.532654 543.654297,196.079758 558.535583,205.887924 
	C560.372375,198.240723 565.305969,196.545914 572.158875,196.731918 
	C586.278503,197.115128 600.415710,196.847198 614.845581,196.847198 
	C615.936401,210.249863 616.656250,223.041245 603.958618,231.673309 
	C600.513794,234.015121 600.591492,237.526245 600.590759,241.047699 
	C600.585876,264.540466 600.586731,288.033203 600.586243,311.525970 
	C600.585754,339.850677 600.585815,368.175354 600.585510,397.000061 
M554.854919,238.809738 
	C551.280396,236.711685 547.885132,234.191116 544.101685,232.585358 
	C522.339417,223.349213 502.077179,236.751114 502.035034,260.337646 
	C501.979980,291.165863 501.932220,321.994843 502.123779,352.822021 
	C502.155457,357.921448 502.896240,363.158356 504.244141,368.075470 
	C506.447388,376.112885 511.428864,382.249237 520.025208,383.733368 
	C531.760132,385.759308 542.889221,383.548950 552.989563,376.989990 
	C556.696655,374.582672 558.505310,371.557617 558.478516,366.700043 
	C558.258240,326.707733 558.406067,286.713470 558.231873,246.720718 
	C558.221008,244.230652 556.436584,241.748322 554.854919,238.809738 
z"/>
<path fill="#4CA37E" opacity="1.000000" stroke="none" 
	d="
M238.143005,336.000000 
	C238.102448,380.324738 238.306503,424.151520 237.942215,467.973541 
	C237.660995,501.803955 215.767487,524.840149 182.031479,528.118896 
	C162.908569,529.977356 144.401932,528.576172 127.372780,518.795532 
	C108.261101,507.818939 97.696632,491.623871 97.880356,469.104736 
	C97.941414,461.620605 97.889992,454.135559 97.889992,445.203033 
	C107.882233,445.961212 117.660774,445.985138 127.150452,447.652771 
	C134.605637,448.962921 138.349762,454.977966 139.007126,462.529968 
	C139.367599,466.671021 139.198044,470.870850 139.744370,474.980743 
	C141.219116,486.074829 146.903275,492.131073 157.928467,493.730682 
	C166.077820,494.912964 174.132858,494.048462 181.949554,490.943237 
	C190.735245,487.453033 195.474838,480.706024 195.689819,471.836700 
	C196.209290,450.406097 195.858398,428.954346 195.858398,406.953491 
	C192.760162,408.834320 189.985413,410.541779 187.188858,412.212738 
	C165.935303,424.911957 130.035965,418.822876 114.393906,399.730560 
	C104.771950,387.986206 99.571548,374.032776 99.268402,359.231995 
	C98.521820,322.782288 98.368835,286.290741 99.300941,249.849869 
	C99.714081,233.698196 105.077995,218.439713 118.103874,207.162674 
	C126.006935,200.320694 135.506104,197.489410 145.535385,196.324875 
	C163.068344,194.289047 180.156006,195.317825 195.152954,205.226730 
	C197.731216,202.479111 199.713364,198.982086 202.681274,197.596405 
	C205.602219,196.232697 209.522263,196.884933 213.004837,196.870239 
	C226.139954,196.814804 239.275436,196.847977 252.642960,196.847977 
	C253.873169,210.261520 254.072571,222.717590 241.923157,231.905060 
	C239.579941,233.677002 238.329102,238.232895 238.301270,241.519150 
	C238.035965,272.844299 238.142929,304.172607 238.143005,336.000000 
M196.136566,282.500000 
	C196.137466,272.173523 195.363663,261.771149 196.365540,251.542709 
	C197.295715,242.046295 192.628662,237.418365 185.142502,233.976303 
	C183.331680,233.143738 181.502274,232.328384 179.623550,231.670258 
	C158.917465,224.416702 140.009262,237.455017 139.930115,259.223724 
	C139.815643,290.702515 139.668915,322.185455 140.105316,353.658691 
	C140.197052,360.274414 142.079224,367.102692 144.370026,373.383026 
	C146.604965,379.510284 152.110794,382.963135 158.588882,383.887848 
	C169.644669,385.466003 180.142197,383.560760 189.750748,377.653320 
	C194.079590,374.991943 196.381393,371.689545 196.303650,365.943542 
	C195.931854,338.466644 196.136780,310.981934 196.136566,282.500000 
z"/>
<path fill="#4CA37E" opacity="1.000000" stroke="none" 
	d="
M284.359833,374.968384 
	C284.530121,373.729767 284.705658,372.903015 284.705994,372.076233 
	C284.725067,328.245544 284.795837,284.414520 284.577423,240.584930 
	C284.563629,237.819626 283.028290,234.097977 280.924835,232.477676 
	C272.810059,226.226852 269.020325,218.435715 269.798096,208.242508 
	C270.072876,204.641037 269.842010,201.000977 269.842010,196.847458 
	C278.812134,196.847458 287.262146,196.847458 295.712158,196.847458 
	C301.545166,196.847458 307.403229,197.187500 313.204651,196.759338 
	C320.088135,196.251282 325.054230,197.984955 326.196808,205.849213 
	C342.371735,196.019943 359.422028,193.469666 377.532654,195.792358 
	C402.070038,198.939270 417.080505,212.315872 421.745789,236.996429 
	C423.650818,247.074631 424.499664,257.479797 424.601105,267.748352 
	C424.941742,302.242950 424.774536,336.743134 424.676788,371.240814 
	C424.663269,376.017365 425.680206,379.603271 429.784210,382.852539 
	C435.870850,387.671478 439.232361,394.359619 439.021484,402.474457 
	C438.913605,406.625366 439.002563,410.781433 439.002563,415.615417 
	C433.111664,415.615417 427.496216,415.675507 421.882538,415.600952 
	C414.061798,415.497070 406.227509,415.532623 398.427399,415.049835 
	C392.840393,414.704041 388.335022,411.690887 386.828461,406.241516 
	C385.033630,399.749573 383.239075,392.987885 383.184052,386.328705 
	C382.852020,346.167145 383.034790,306.001465 382.989319,265.837219 
	C382.985168,262.185669 382.691040,258.524719 382.351471,254.884933 
	C380.541351,235.482864 364.121521,230.329987 351.145020,231.277145 
	C342.985291,231.872742 335.554535,234.932648 329.391510,240.321487 
	C327.668060,241.828445 326.243958,244.723755 326.233887,246.989120 
	C326.048645,288.652496 326.115814,330.316956 326.075409,371.981110 
	C326.071259,376.236969 327.189209,379.599396 330.835602,382.321625 
	C337.798859,387.520050 341.402618,394.555695 341.041962,403.448578 
	C340.887268,407.262878 341.016113,411.088654 341.016113,415.261047 
	C317.316620,415.261047 293.915802,415.261047 270.147949,415.261047 
	C269.473633,402.471954 267.930817,389.719788 280.834595,381.158203 
	C282.520081,380.039917 283.159424,377.344910 284.359833,374.968384 
z"/>
<path fill="#4FA480" opacity="1.000000" stroke="none" 
	d="
M463.180847,68.754379 
	C452.137207,66.187477 441.497467,63.725513 430.331818,61.141853 
	C434.066803,56.065250 437.771667,51.783562 440.622009,46.993370 
	C446.026581,37.910542 450.999023,28.567383 456.018707,19.261015 
	C457.267670,16.945507 458.294830,15.281816 461.490997,15.286752 
	C532.817810,15.396883 604.144836,15.381413 675.471863,15.398384 
	C675.599243,15.398414 675.726685,15.526917 677.726562,16.602016 
	C676.252686,16.995724 675.330750,17.019760 674.675110,17.449753 
	C659.923279,27.125162 645.241272,36.908092 630.414429,46.466583 
	C628.802734,47.505596 626.346313,47.768280 624.349854,47.596935 
	C592.360168,44.851452 560.382935,41.960308 528.399841,39.136948 
	C505.032623,37.074177 481.661102,35.059750 458.290680,33.033550 
	C457.130249,32.932941 455.898560,32.670746 454.812866,32.939495 
	C453.444916,33.278114 452.193115,34.085957 450.891205,34.691364 
	C452.016052,35.455536 453.052979,36.681343 454.278931,36.914886 
	C473.887665,40.650459 493.515778,44.285492 513.149109,47.890835 
	C541.448853,53.087620 569.756653,58.241013 598.060425,63.416115 
	C600.139709,63.796307 602.214294,64.202354 605.317749,64.791161 
	C595.976501,71.668243 586.891052,77.477913 578.876099,84.507965 
	C571.055725,91.367378 563.455566,92.206474 553.505371,89.689575 
	C523.683655,82.146179 493.579010,75.720963 463.180847,68.754379 
z"/>
<path fill="#4FA480" opacity="1.000000" stroke="none" 
	d="
M108.000084,15.367960 
	C150.479141,15.368183 192.458176,15.368183 232.991653,15.368183 
	C242.513000,31.092884 251.514893,45.959698 260.786560,61.272022 
	C256.471741,62.346558 251.468979,63.679886 246.425323,64.834579 
	C207.451477,73.757233 168.483459,82.707024 129.458405,91.400459 
	C126.948883,91.959496 123.435165,91.243118 121.316277,89.778214 
	C110.679626,82.424530 100.347130,74.630493 89.927429,66.964462 
	C89.324173,66.520630 88.893768,65.841881 88.165787,65.030441 
	C139.481766,55.155468 190.367218,45.365154 241.242661,35.523102 
	C241.502182,35.472900 241.620300,34.691776 242.247772,33.193306 
	C238.258179,33.193306 234.746750,32.936085 231.282959,33.233658 
	C201.296234,35.809784 171.316330,38.466396 141.337875,41.137875 
	C116.829185,43.321922 92.328720,45.600006 67.812691,47.697025 
	C65.800720,47.869122 63.332508,47.535698 61.693012,46.479687 
	C46.938084,36.975918 32.317520,27.263378 17.675961,17.584217 
	C17.043304,17.165985 16.590376,16.475878 15.534957,15.367736 
	C46.675865,15.367736 77.087975,15.367736 108.000084,15.367960 
z"/>
<path fill="#4EA47F" opacity="1.000000" stroke="none" 
	d="
M467.109253,124.010490 
	C479.877228,128.736664 492.274994,133.342606 505.056305,138.091034 
	C484.364502,152.590485 462.036316,154.915955 438.776947,149.776108 
	C409.997803,143.416473 385.086517,128.783569 361.079865,111.971504 
	C370.675659,106.651550 379.872559,101.444649 389.212311,96.508003 
	C390.415161,95.872215 392.492920,96.274231 393.939087,96.808311 
	C418.227081,105.777863 442.479065,114.844887 467.109253,124.010490 
z"/>
<path fill="#4DA37F" opacity="1.000000" stroke="none" 
	d="
M234.939667,152.019073 
	C217.481323,152.634903 201.990036,148.137665 187.432632,138.172577 
	C196.638580,134.705521 205.502884,131.329208 214.394196,128.025620 
	C242.162842,117.708099 269.956543,107.457726 297.695740,97.061882 
	C300.793610,95.900902 303.160095,96.149818 306.049622,97.852745 
	C314.158905,102.631912 322.515961,106.990738 331.472748,111.897446 
	C326.053864,115.500183 320.944763,119.056152 315.681702,122.367493 
	C296.786407,134.255737 277.061829,144.394470 255.112915,149.349380 
	C248.679489,150.801712 241.997406,151.152588 234.939667,152.019073 
z"/>
<path fill="#4EA480" opacity="1.000000" stroke="none" 
	d="
M537.759399,101.345757 
	C542.107422,102.465828 546.051636,103.506134 550.836365,104.768143 
	C540.617920,112.240921 531.021851,119.306709 521.335144,126.245956 
	C520.602295,126.770950 519.120300,126.711548 518.162048,126.394058 
	C479.674347,113.641518 441.206940,100.827843 402.264771,87.864830 
	C408.423584,82.344841 414.175262,77.007393 420.195557,71.992363 
	C421.088593,71.248474 423.318695,71.753731 424.812225,72.138687 
	C462.336304,81.810463 499.844604,91.543640 537.759399,101.345757 
z"/>
<path fill="#4DA37F" opacity="1.000000" stroke="none" 
	d="
M170.301666,125.835335 
	C160.924255,118.961037 151.863037,112.280861 141.743744,104.820656 
	C148.399857,103.058281 154.029694,101.546120 159.670868,100.077499 
	C195.305161,90.800476 230.949173,81.560684 266.566040,72.217255 
	C269.900238,71.342590 272.412872,71.641182 275.028351,74.200172 
	C279.651245,78.723228 284.673248,82.838387 290.048279,87.583412 
	C287.808777,88.426743 285.813812,89.253990 283.770416,89.936165 
	C248.081024,101.850952 212.393082,113.770187 176.670837,125.585785 
	C174.808060,126.201920 172.642456,125.902588 170.301666,125.835335 
z"/>
<path fill="#FFFFFF" opacity="1.000000" stroke="none" 
	d="
M555.166077,239.036072 
	C556.436584,241.748322 558.221008,244.230652 558.231873,246.720718 
	C558.406067,286.713470 558.258240,326.707733 558.478516,366.700043 
	C558.505310,371.557617 556.696655,374.582672 552.989563,376.989990 
	C542.889221,383.548950 531.760132,385.759308 520.025208,383.733368 
	C511.428864,382.249237 506.447388,376.112885 504.244141,368.075470 
	C502.896240,363.158356 502.155457,357.921448 502.123779,352.822021 
	C501.932220,321.994843 501.979980,291.165863 502.035034,260.337646 
	C502.077179,236.751114 522.339417,223.349213 544.101685,232.585358 
	C547.885132,234.191116 551.280396,236.711685 555.166077,239.036072 
z"/>
<path fill="#FFFFFF" opacity="1.000000" stroke="none" 
	d="
M196.136627,283.000000 
	C196.136780,310.981934 195.931854,338.466644 196.303650,365.943542 
	C196.381393,371.689545 194.079590,374.991943 189.750748,377.653320 
	C180.142197,383.560760 169.644669,385.466003 158.588882,383.887848 
	C152.110794,382.963135 146.604965,379.510284 144.370026,373.383026 
	C142.079224,367.102692 140.197052,360.274414 140.105316,353.658691 
	C139.668915,322.185455 139.815643,290.702515 139.930115,259.223724 
	C140.009262,237.455017 158.917465,224.416702 179.623550,231.670258 
	C181.502274,232.328384 183.331680,233.143738 185.142502,233.976303 
	C192.628662,237.418365 197.295715,242.046295 196.365540,251.542709 
	C195.363663,261.771149 196.137466,272.173523 196.136627,283.000000 
z"/>
</svg>